<svg width="33" height="33" viewBox="0 0 33 33" fill="none" xmlns="http://www.w3.org/2000/svg">
<path d="M16.5074 8.03922C11.8241 8.03922 8.04658 11.8167 8.04658 16.5C8.04658 21.1833 11.8241 24.9608 16.5074 24.9608C21.1906 24.9608 24.9681 21.1833 24.9681 16.5C24.9681 11.8167 21.1906 8.03922 16.5074 8.03922ZM16.5074 22.0006C13.4809 22.0006 11.0067 19.5338 11.0067 16.5C11.0067 13.4662 13.4736 10.9994 16.5074 10.9994C19.5412 10.9994 22.008 13.4662 22.008 16.5C22.008 19.5338 19.5338 22.0006 16.5074 22.0006ZM27.2877 7.69313C27.2877 8.7903 26.4041 9.66657 25.3142 9.66657C24.2171 9.66657 23.3408 8.78294 23.3408 7.69313C23.3408 6.60331 24.2244 5.71968 25.3142 5.71968C26.4041 5.71968 27.2877 6.60331 27.2877 7.69313ZM32.8914 9.69603C32.7662 7.05249 32.1624 4.71087 30.2258 2.7816C28.2965 0.852337 25.9549 0.248522 23.3113 0.115977C20.5868 -0.0386589 12.4206 -0.0386589 9.69603 0.115977C7.05986 0.241158 4.71823 0.844974 2.7816 2.77424C0.844974 4.7035 0.248522 7.04513 0.115977 9.68866C-0.0386589 12.4132 -0.0386589 20.5794 0.115977 23.304C0.241158 25.9475 0.844974 28.2891 2.7816 30.2184C4.71823 32.1477 7.05249 32.7515 9.69603 32.884C12.4206 33.0387 20.5868 33.0387 23.3113 32.884C25.9549 32.7588 28.2965 32.155 30.2258 30.2184C32.155 28.2891 32.7588 25.9475 32.8914 23.304C33.046 20.5794 33.046 12.4206 32.8914 9.69603ZM29.3716 26.2273C28.7972 27.6706 27.6853 28.7825 26.2347 29.3642C24.0624 30.2258 18.9079 30.0269 16.5074 30.0269C14.1068 30.0269 8.94494 30.2184 6.78004 29.3642C5.33677 28.7899 4.22487 27.678 3.64314 26.2273C2.7816 24.0551 2.98042 18.9005 2.98042 16.5C2.98042 14.0995 2.78897 8.93758 3.64314 6.77268C4.21751 5.32941 5.32941 4.21751 6.78004 3.63578C8.9523 2.77424 14.1068 2.97306 16.5074 2.97306C18.9079 2.97306 24.0698 2.7816 26.2347 3.63578C27.678 4.21014 28.7899 5.32205 29.3716 6.77268C30.2331 8.94494 30.0343 14.0995 30.0343 16.5C30.0343 18.9005 30.2331 24.0624 29.3716 26.2273Z" fill="black"/>
</svg>
