<svg width="37" height="33" viewBox="0 0 37 33" fill="none" xmlns="http://www.w3.org/2000/svg">
<path d="M26.9215 33H9.82849C3.94849 33 0 28.644 0 22.1571V10.8429C0 4.356 3.94849 0 9.82849 0H26.9215C32.8015 0 36.75 4.356 36.75 10.8429V22.1571C36.75 28.644 32.8015 33 26.9215 33ZM9.82849 2.82857C5.41849 2.82857 2.56395 5.97771 2.56395 10.8429V22.1571C2.56395 27.0223 5.41849 30.1714 9.82849 30.1714H26.9215C31.3315 30.1714 34.186 27.0223 34.186 22.1571V10.8429C34.186 5.97771 31.3315 2.82857 26.9215 2.82857H9.82849Z" fill="black"/>
<path d="M15.9644 23.1569C15.4687 23.1569 14.9901 23.0249 14.5627 22.7609C13.5713 22.1387 12.99 20.8752 12.99 19.3101V13.7284C12.99 12.1633 13.5542 10.8999 14.5627 10.2776C15.5541 9.65528 16.8359 9.76837 18.0495 10.5792L22.2717 13.3701C23.434 14.1432 24.1005 15.2935 24.1005 16.5192C24.1005 17.7449 23.434 18.8952 22.2717 19.6684L18.0495 22.4592C17.3487 22.9118 16.631 23.1569 15.9644 23.1569ZM15.9644 12.6724C15.896 12.6724 15.8445 12.6912 15.8104 12.7101C15.6907 12.7855 15.554 13.1249 15.554 13.7095V19.2912C15.554 19.8569 15.6907 20.1964 15.8104 20.2907C15.9471 20.3661 16.272 20.3284 16.7165 20.0267L20.9383 17.2358C21.3656 16.9529 21.5196 16.6701 21.5196 16.5004C21.5196 16.3307 21.3656 16.0667 20.9383 15.7649L16.7165 12.9741C16.4088 12.7667 16.1353 12.6724 15.9644 12.6724Z" fill="black"/>
</svg>
